<?xml version="1.0" encoding="UTF-8" standalone="no"?>
<svg
   version="1.1"
   viewBox="0 0 309 118"
   fill="none"
   stroke="none"
   stroke-linecap="square"
   stroke-miterlimit="10"
   id="svg8"
   sodipodi:docname="icon.svg"
   width="309"
   height="118"
   inkscape:version="1.3.2 (091e20ef0f, 2023-11-25)"
   xmlns:inkscape="http://www.inkscape.org/namespaces/inkscape"
   xmlns:sodipodi="http://sodipodi.sourceforge.net/DTD/sodipodi-0.dtd"
   xmlns="http://www.w3.org/2000/svg"
   xmlns:svg="http://www.w3.org/2000/svg">
  <defs
     id="defs8" />
  <sodipodi:namedview
     id="namedview8"
     pagecolor="#505050"
     bordercolor="#eeeeee"
     borderopacity="1"
     inkscape:showpageshadow="0"
     inkscape:pageopacity="0"
     inkscape:pagecheckerboard="0"
     inkscape:deskcolor="#505050"
     inkscape:zoom="0.74933677"
     inkscape:cx="347.64075"
     inkscape:cy="326.28854"
     inkscape:window-width="1280"
     inkscape:window-height="987"
     inkscape:window-x="0"
     inkscape:window-y="0"
     inkscape:window-maximized="1"
     inkscape:current-layer="svg8" />
  <clipPath
     id="p.0">
    <path
       d="M 0,0 H 960 V 720 H 0 Z"
       clip-rule="nonzero"
       id="path1" />
  </clipPath>
  <g
     clip-path="url(#p.0)"
     id="g8">
    <path
       fill="#000000"
       fill-opacity="0"
       d="M 0,0 H 960 V 720 H 0 Z"
       fill-rule="evenodd"
       id="path2" />
    <path
       fill="#000000"
       fill-opacity="0"
       d="m 202.63518,58.28609 v 0 c 0,-18.82117 16.25876,-34.078743 36.31496,-34.078743 v 0 c 9.63131,0 18.86816,3.590427 25.67855,9.981432 6.81037,6.391003 10.63642,15.059063 10.63642,24.09731 v 0 c 0,18.821163 -16.25879,34.07874 -36.31497,34.07874 v 0 c -20.0562,0 -36.31496,-15.257576 -36.31496,-34.07874 z"
       fill-rule="evenodd"
       id="path3" />
    <path
       stroke="#93c47d"
       stroke-width="8"
       stroke-linejoin="round"
       stroke-linecap="butt"
       d="m 202.63518,58.28609 v 0 c 0,-18.82117 16.25876,-34.078743 36.31496,-34.078743 v 0 c 9.63131,0 18.86816,3.590427 25.67855,9.981432 6.81037,6.391003 10.63642,15.059063 10.63642,24.09731 v 0 c 0,18.821163 -16.25879,34.07874 -36.31497,34.07874 v 0 c -20.0562,0 -36.31496,-15.257576 -36.31496,-34.07874 z"
       fill-rule="evenodd"
       id="path4" />
    <path
       fill="#93c47d"
       d="m 212.05249,58.28609 v 0 c 0,-14.394196 12.04248,-26.062992 26.89764,-26.062992 v 0 c 7.1337,0 13.97522,2.745914 19.0195,7.633671 5.04428,4.88776 7.87815,11.516983 7.87815,18.429321 v 0 c 0,14.394192 -12.0425,26.062992 -26.89765,26.062992 v 0 c -14.85516,0 -26.89764,-11.6688 -26.89764,-26.062992 z"
       fill-rule="evenodd"
       id="path5" />
    <path
       fill="#93c47d"
       d="m 118.35564,58.28609 v 0 c 0,-14.394196 12.04249,-26.062992 26.89764,-26.062992 v 0 c 7.1337,0 13.97522,2.745914 19.0195,7.633671 5.04428,4.88776 7.87814,11.516983 7.87814,18.429321 v 0 c 0,14.394192 -12.04249,26.062992 -26.89764,26.062992 v 0 c -14.85515,0 -26.89764,-11.6688 -26.89764,-26.062992 z"
       fill-rule="evenodd"
       id="path6" />
    <path
       fill="#000000"
       fill-opacity="0"
       d="M 42.99475,26.900263 94.144355,58.286091 42.99475,89.671913 Z"
       fill-rule="evenodd"
       id="path7" />
    <path
       stroke="#93c47d"
       stroke-width="4"
       stroke-linejoin="round"
       stroke-linecap="butt"
       d="M 42.99475,26.900263 94.144355,58.286091 42.99475,89.671913 Z"
       fill-rule="evenodd"
       id="path8" />
  </g>
</svg>
